<svg xmlns="http://www.w3.org/2000/svg" width="51" height="61" viewBox="0 0 51 61">
    <path fill="#A4C439" fill-rule="evenodd" d="M50.997 23.49c0-2.08-1.665-3.765-3.718-3.764-2.054-.002-3.718 1.686-3.718 3.766l.003 15.766c0 2.082 1.664 3.764 3.718 3.764 2.054 0 3.718-1.682 3.718-3.766l-.003-15.766zM8.88 20.442l.006 24.433c-.002 2.222 1.774 4.016 3.968 4.017h2.701l.003 8.343c0 2.076 1.667 3.765 3.716 3.765 2.055 0 3.72-1.69 3.72-3.768l-.002-8.34 5.02-.001.003 8.341c0 2.076 1.668 3.767 3.717 3.764 2.055.001 3.72-1.689 3.72-3.767l-.002-8.34 2.71-.001c2.19 0 3.97-1.796 3.97-4.019l-.004-24.433-33.246.006zm24.244-7.456a1.412 1.412 0 0 1-1.405-1.422c.003-.779.63-1.422 1.405-1.425.77.002 1.402.645 1.402 1.426a1.41 1.41 0 0 1-1.402 1.42zm-15.252.002a1.413 1.413 0 0 1-1.4-1.42c0-.782.627-1.424 1.4-1.424.777 0 1.406.642 1.407 1.423 0 .784-.63 1.42-1.407 1.421zm15.834-7.415L36.302.774a.528.528 0 0 0-.204-.712.514.514 0 0 0-.7.21L32.777 5.12a17.656 17.656 0 0 0-7.287-1.548 17.663 17.663 0 0 0-7.27 1.541L15.597.277a.51.51 0 0 0-.698-.208.52.52 0 0 0-.205.707l2.597 4.795c-5.102 2.665-8.55 7.737-8.547 13.561l33.497-.003c.001-5.823-3.44-10.885-8.534-13.556zM3.718 19.731C1.665 19.73 0 21.418 0 23.496l.003 15.766c0 2.084 1.665 3.766 3.719 3.765 2.055 0 3.72-1.682 3.717-3.765V23.493c0-2.076-1.667-3.764-3.72-3.762z"/>
</svg>
