<svg xmlns="http://www.w3.org/2000/svg" width="68" height="40" viewBox="0 0 68 40">
    <g fill="none" fill-rule="evenodd">
        <path fill="#252F3E" fill-rule="nonzero" d="M19.9 13.894c0 .787.088 1.425.244 1.893.178.468.4.979.711 1.532.111.17.156.34.156.49 0 .212-.134.425-.423.638l-1.4.893c-.2.128-.4.192-.578.192-.222 0-.444-.106-.666-.298a6.622 6.622 0 0 1-.8-1 16.238 16.238 0 0 1-.69-1.255c-1.733 1.957-3.91 2.936-6.533 2.936-1.867 0-3.356-.51-4.445-1.532C4.386 17.362 3.83 16 3.83 14.298c0-1.809.667-3.277 2.022-4.383 1.356-1.106 3.156-1.66 5.445-1.66.756 0 1.534.064 2.356.17.823.107 1.667.277 2.556.469V7.34c0-1.617-.355-2.744-1.044-3.404-.712-.66-1.912-.979-3.623-.979-.778 0-1.578.086-2.4.277-.823.192-1.623.426-2.4.723a6.562 6.562 0 0 1-.778.277 1.418 1.418 0 0 1-.356.064c-.311 0-.467-.213-.467-.66V2.596c0-.34.045-.596.156-.745.11-.149.311-.298.622-.447.778-.383 1.711-.702 2.8-.957C9.81.17 10.965.043 12.187.043c2.645 0 4.579.574 5.823 1.723C19.233 2.915 19.855 4.66 19.855 7v6.894h.044zm-9.024 3.234c.734 0 1.49-.128 2.29-.383.8-.256 1.51-.724 2.11-1.362.356-.404.623-.851.756-1.362.134-.51.223-1.127.223-1.85v-.894a19.306 19.306 0 0 0-2.045-.362c-.711-.085-1.4-.128-2.09-.128-1.488 0-2.577.277-3.31.851-.734.575-1.09 1.383-1.09 2.447 0 1 .267 1.745.823 2.255.533.532 1.31.788 2.333.788zm17.847 2.298c-.4 0-.667-.064-.845-.213-.178-.128-.333-.426-.467-.83L22.19 1.936c-.134-.425-.2-.702-.2-.85 0-.341.177-.533.533-.533H24.7c.422 0 .711.064.867.213.178.128.31.425.444.83l3.734 14.085 3.467-14.085c.111-.426.245-.702.422-.83.178-.128.49-.213.89-.213H36.3c.423 0 .711.064.89.213.177.128.333.425.422.83l3.511 14.255L44.97 1.596c.133-.426.289-.702.444-.83.178-.128.467-.213.867-.213h2.067c.356 0 .556.17.556.532 0 .106-.023.213-.045.34a2.926 2.926 0 0 1-.155.532l-5.356 16.447c-.134.426-.29.702-.467.83-.178.128-.467.213-.845.213h-1.911c-.422 0-.711-.064-.889-.213-.178-.149-.333-.425-.422-.851L35.368 4.66l-3.423 13.702c-.11.425-.244.702-.422.85-.178.15-.489.214-.889.214h-1.911zM57.28 20c-1.155 0-2.31-.128-3.422-.383-1.111-.255-1.978-.532-2.556-.851-.356-.192-.6-.404-.689-.596a1.447 1.447 0 0 1-.133-.596V16.49c0-.446.177-.66.51-.66.134 0 .268.022.4.065.134.042.334.127.557.212.755.32 1.577.575 2.444.745.89.17 1.756.255 2.645.255 1.4 0 2.49-.234 3.245-.702.755-.468 1.155-1.149 1.155-2.021 0-.596-.2-1.085-.6-1.49-.4-.404-1.155-.765-2.244-1.106l-3.223-.957c-1.622-.49-2.822-1.213-3.556-2.17-.733-.937-1.111-1.98-1.111-3.086 0-.893.2-1.68.6-2.361.4-.681.933-1.277 1.6-1.745.667-.49 1.423-.851 2.312-1.106.889-.256 1.822-.362 2.8-.362.489 0 1 .021 1.489.085.511.064.978.149 1.445.234.444.107.866.213 1.266.34.4.128.712.256.934.384.31.17.533.34.667.531.133.17.2.405.2.703v1c0 .446-.178.68-.512.68-.177 0-.466-.085-.844-.255-1.267-.553-2.69-.83-4.267-.83-1.267 0-2.267.192-2.956.596-.69.404-1.045 1.021-1.045 1.894 0 .595.222 1.106.667 1.51.444.405 1.267.809 2.445 1.17L60.66 9c1.6.49 2.755 1.17 3.444 2.043.69.872 1.023 1.872 1.023 2.978 0 .915-.2 1.745-.578 2.468a5.787 5.787 0 0 1-1.622 1.873c-.69.532-1.512.915-2.467 1.191-1 .298-2.045.447-3.179.447z"/>
        <g fill="#F90">
            <path d="M61.358 31.641c-7.408 5.446-18.171 8.337-27.426 8.337-12.97 0-24.655-4.774-33.482-12.706-.698-.628-.067-1.48.766-.986 9.547 5.512 21.323 8.851 33.505 8.851 8.218 0 17.247-1.703 25.556-5.199 1.238-.56 2.297.807 1.08 1.703z"/>
            <path d="M64.442 28.146c-.945-1.21-6.26-.583-8.668-.292-.721.09-.834-.537-.18-1.008 4.232-2.958 11.19-2.107 12-1.12.811 1.008-.224 7.932-4.187 11.249-.608.515-1.194.246-.924-.426.901-2.218 2.905-7.216 1.96-8.403z"/>
        </g>
    </g>
</svg>
