<svg xmlns="http://www.w3.org/2000/svg" width="48" height="58" viewBox="0 0 48 58">
    <g fill="none" fill-rule="nonzero">
        <path fill="#ECEFF1" d="M17.528 16.465l.153 3.65-2.45 4.762-3.828 7.777-.766 6.507 2.757 9.205 6.278 3.65h9.494l8.88-6.983 3.982-10.951-9.187-11.586-2.604-6.507z"/>
        <path fill="#263238" d="M39.272 25.511c-2.45-3.65-4.44-5.872-5.513-10.475-1.072-4.602.307-3.333-.612-7.3-.46-2.064-1.225-3.492-1.99-4.603-.92-1.111-1.991-1.746-2.604-1.905-1.378-.793-4.594-2.063-8.575.159-4.134 2.222-3.675 6.983-2.91 16.665 0 .635-.152 1.428-.459 2.063-.612 1.429-1.684 2.698-2.603 3.81-1.072 1.586-2.143 3.174-2.91 4.92-1.837 3.65-3.521 8.253-3.062 9.998.766-.158 10.413 15.078 10.413 15.396.612-.16 3.216-.16 5.512-.16 3.216-.158 5.053-.317 7.657.318 0-.476-.154-.952-.154-1.428 0-.952.154-1.746.307-2.857.153-.794.306-1.587.46-2.54-1.532 1.43-4.288 3.016-6.892 3.492-2.296.476-6.125-.317-7.962-2.698.153 0 .46 0 .613-.159.459-.158.918-.317 1.071-.634.46-.794.153-1.588-.153-2.064s-2.603-2.222-3.675-3.174c-1.072-.952-1.684-1.428-2.297-2.063l-1.225-1.27c-.306-.317-.459-.635-.612-.793-.306-.794-.46-1.746-.306-3.016.153-1.746.765-3.174 1.53-4.761.307-.635 1.073-1.905 1.073-1.905s-2.603 6.666-1.225 8.73c0 0 .153-2.064.765-4.127.46-1.429 1.225-3.492 2.144-4.603.919-1.111 3.216-5.238 3.369-7.777 0-1.11.153-2.222.153-3.015-.613-.635 10.106-2.222 10.719-.477.153.635 2.297 6.349 3.522 9.364.612 1.429 1.378 2.699 1.837 4.286.46 1.746.766 4.126.766 6.507 0 .476 0 1.27-.153 2.063.306 0 6.278-6.666-.766-12.22 0 0 4.288 2.063 4.44 6.19.154 3.332-1.224 6.03-1.53 6.506.152 0 3.215 1.429 3.368 1.429.613 0 1.838-.476 1.838-.476.153-.476.612-1.746.612-2.222 1.072-3.65-1.531-9.523-3.981-13.174z"/>
        <g fill="#ECEFF1" transform="translate(17.375 6.625)">
            <ellipse cx="2.45" cy="5.238" rx="1.991" ry="3.174"/>
            <ellipse cx="9.341" cy="5.079" rx="2.603" ry="3.65"/>
        </g>
        <g fill="#212121" transform="translate(17.375 9.799)">
            <ellipse cx="2.499" cy="2.42" rx="1.837" ry="1.111" transform="rotate(-97.204 2.499 2.42)"/>
            <ellipse cx="9.188" cy="2.539" rx="1.531" ry="2.063"/>
        </g>
        <g fill="#FFC107">
            <path d="M46.928 47.255c-.612-.317-1.684-.793-2.603-2.222-.46-.793-.306-3.015-1.072-3.968-.46-.634-1.072-.317-1.225-.317-1.378.317-4.594 2.54-6.737 0-.307-.317-.766-.794-1.532-.794-.765 0-1.072.318-1.378.953-.306.635-.306 1.11-.306 2.698 0 1.27 0 2.698-.153 3.809-.306 2.698-.766 4.285-.766 5.872 0 1.746.46 2.857 1.072 3.333.46.476 1.225.794 2.91.794 1.684 0 2.756-.635 3.828-1.746.765-.794 1.378-1.111 3.521-2.698 1.685-1.111 4.288-2.54 4.747-3.016.307-.317.766-.476.766-1.428 0-.794-.612-1.111-1.072-1.27zM16.15 47.731c-1.531-2.54-1.684-3.015-2.756-4.602-.919-1.587-2.91-4.603-4.135-4.603-.918 0-1.378.476-1.99 1.111-.613.635-1.225 2.063-2.297 2.857-.919.793-3.522.635-4.135 1.587-.612.952.613 2.38.613 4.761 0 .953-.766 1.587-.919 2.222-.153.794-.306 1.27 0 1.905.613.952 1.378 1.27 6.585 2.38 2.756.635 5.359 2.223 7.043 2.381 1.685.159 4.594 0 4.594-4.285.153-2.54-1.225-3.174-2.603-5.714zM19.06 19.004c-.92-.635-1.685-1.27-1.685-2.222s.613-1.27 1.531-2.063c.153-.159 1.838-1.746 3.522-1.746 1.684 0 3.675 1.111 4.44 1.429 1.379.317 2.757.634 2.604 1.745-.153 1.588-.306 1.905-1.838 2.698-1.072.318-3.062 2.064-4.44 2.064-.613 0-1.531 0-2.144-.159-.46-.159-1.225-.952-1.99-1.746z"/>
        </g>
        <g fill="#634703">
            <path d="M18.753 17.735a3.32 3.32 0 0 0 1.225.793c.306.159.766.317.766.317h1.378c.766 0 1.837-.317 2.91-.952 1.071-.476 1.224-.793 1.99-1.11.766-.477 1.531-.953 1.225-1.112-.306-.158-.613 0-1.684.635-.92.635-1.685.952-2.604 1.429-.459.158-1.071.476-1.53.476H21.05c-.46 0-.766-.16-1.225-.318-.306-.158-.46-.317-.612-.317-.307-.159-.92-.794-1.225-.952 0 0-.307 0-.154.158l.92.953zM23.347 14.243c.153.317.46.317.612.476a.467.467 0 0 0 .307.159c.153-.16 0-.476-.153-.476 0-.318-.766-.318-.766-.16zM20.897 14.56c0 .159.306.318.306.159.153-.159.306-.317.46-.317.306-.16.153-.318-.307-.318-.306.159-.306.318-.46.476z"/>
        </g>
        <path fill="#455A64" d="M35.75 42.653v.476c.306.635 1.072.793 1.684.793.92 0 1.838-.635 2.297-1.27 0-.158.153-.317.306-.476.307-.476.46-.793.613-.952 0 0-.153-.159-.153-.317-.153-.318-.613-.635-1.225-.794-.46-.159-1.225-.317-1.531-.317-1.379-.159-2.144.317-2.603.793 0 0 .153 0 .153.159.306.317.459.635.459 1.11.153.318 0 .477 0 .795z"/>
    </g>
</svg>
