<svg xmlns="http://www.w3.org/2000/svg" width="60" height="48" viewBox="0 0 60 48">
    <g fill="none" fill-rule="nonzero">
        <path fill="#EA4335" d="M39.903 13.24l5.215-5.186.348-2.183c-9.504-8.592-24.612-7.618-33.18 2.033-2.38 2.68-4.145 6.021-5.087 9.472l1.868-.262 10.431-1.71.805-.818c4.64-5.066 12.486-5.748 17.843-1.438l1.757.091z"/>
        <path fill="#4285F4" d="M52.548 17.224A23.34 23.34 0 0 0 45.466 5.87l-7.32 7.277a12.905 12.905 0 0 1 4.776 10.261v1.292c3.598 0 6.515 2.9 6.515 6.477 0 3.577-2.917 6.404-6.515 6.404H29.874l-1.28 1.383v7.768l1.28 1.22h13.048c9.359.072 17.005-7.34 17.077-16.643a16.82 16.82 0 0 0-7.451-14.086"/>
        <path fill="#34A853" d="M16.845 47.952h13.03v-10.37h-13.03A6.424 6.424 0 0 1 14.173 37l-1.849.564-5.252 5.185-.457 1.765c2.945 2.21 6.539 3.454 10.23 3.438"/>
        <path fill="#FBBC05" d="M16.845 14.313C7.485 14.368-.055 21.956 0 31.26a16.813 16.813 0 0 0 6.615 13.254L14.173 37c-3.28-1.473-4.736-5.31-3.255-8.57 1.481-3.259 5.34-4.708 8.62-3.235a6.496 6.496 0 0 1 3.254 3.236l7.558-7.514a16.963 16.963 0 0 0-13.505-6.604"/>
    </g>
</svg>
