<svg xmlns="http://www.w3.org/2000/svg" xmlns:xlink="http://www.w3.org/1999/xlink" width="80" height="17" viewBox="0 0 80 17">
    <defs>
        <path id="a" d="M.003.02h11.331v16.944H.003z"/>
        <path id="c" d="M0 0h10.83v15.692H0z"/>
        <path id="e" d="M.015 0h3.203v3.036H.015z"/>
    </defs>
    <g fill="none" fill-rule="evenodd">
        <g transform="translate(24.92 .036)">
            <mask id="b" fill="#fff">
                <use xlink:href="#a"/>
            </mask>
            <path fill="#CD2028" d="M2.467 10.795c0 1.223.003 2.445-.004 3.668-.001.156.054.218.198.268.743.26 1.506.427 2.292.482.554.04 1.109.036 1.653-.103 1.036-.265 1.645-.945 1.926-1.914.409-1.414.446-2.851.201-4.296-.102-.604-.315-1.17-.742-1.639-.624-.683-1.445-.92-2.348-.932a8.268 8.268 0 0 0-2.994.538c-.136.051-.187.112-.186.26.007 1.223.004 2.445.004 3.668zm2.248 6.169c-.246-.026-.492-.05-.738-.077-1.285-.137-2.542-.396-3.757-.834-.167-.06-.218-.143-.217-.315C.008 10.576.007 5.413.007.25V.02h2.455V5.34c.148-.052.264-.09.379-.131 1.206-.428 2.446-.648 3.734-.594 2.038.085 3.558 1.149 4.282 3 .332.848.46 1.73.475 2.63.018 1.092-.065 2.174-.37 3.232-.541 1.881-1.823 2.97-3.78 3.335-.298.055-.604.077-.906.117-.047.006-.093.023-.14.036H4.716z" mask="url(#b)"/>
        </g>
        <path fill="#CD2028" d="M68.992 10.824c0 1.235.001 2.47-.001 3.705 0 .105.011.175.134.218 1.06.372 2.15.572 3.28.51.659-.038 1.275-.212 1.79-.64.485-.403.748-.935.902-1.517.357-1.347.397-2.714.18-4.085-.096-.597-.292-1.166-.696-1.642-.623-.735-1.468-.994-2.406-1.007a8.203 8.203 0 0 0-3.012.543c-.132.05-.175.109-.174.246.006 1.223.003 2.446.003 3.669zM71.244 17l-.737-.076c-1.286-.136-2.542-.396-3.757-.833-.164-.06-.223-.137-.222-.313.005-5.169.004-10.338.004-15.506V.058h2.453v5.316c.169-.058.307-.103.445-.151 1.184-.416 2.401-.628 3.664-.572 2.077.091 3.593 1.166 4.313 3.061.397 1.046.483 2.133.449 3.233-.03.963-.143 1.915-.456 2.838-.565 1.669-1.759 2.65-3.504 3.024-.363.078-.738.106-1.107.158-.054.008-.107.023-.16.035h-1.385z"/>
        <g transform="translate(0 1.017)">
            <mask id="d" fill="#fff">
                <use xlink:href="#c"/>
            </mask>
            <path fill="#CD2028" d="M2.47 7.045c.051.004.082.008.112.008.948 0 1.896.014 2.844-.007a6.213 6.213 0 0 0 1.182-.148c.801-.176 1.395-.601 1.614-1.413.18-.665.205-1.339.077-2.014-.15-.796-.623-1.332-1.437-1.52a7.938 7.938 0 0 0-1.493-.201c-.897-.032-1.795-.01-2.693-.009-.066 0-.133.006-.205.009v5.295zM0 0c.08.005.16.014.241.014C2.055.015 3.87.007 5.683.018c.86.005 1.713.093 2.543.344 1.495.453 2.377 1.498 2.55 3.01.09.789.077 1.57-.092 2.345C10.38 7.1 9.49 7.963 8.142 8.42c-.761.258-1.55.355-2.35.363-1.029.01-2.057.002-3.086.002h-.241v6.908H0V0z" mask="url(#d)"/>
        </g>
        <path fill="#CD2028" d="M16.763 17c-.3-.038-.602-.07-.902-.115-.713-.108-1.395-.311-2.014-.681-.963-.576-1.455-1.434-1.566-2.509a9.105 9.105 0 0 1-.037-.924c-.003-2.542-.002-5.085-.002-7.627v-.226h2.46v.236c0 2.282-.002 4.565.003 6.847 0 .57.051 1.136.226 1.685.288.905.933 1.42 1.887 1.53 1.17.135 2.324.003 3.458-.303.161-.043.21-.117.21-.279-.004-3.16-.003-6.32-.003-9.48v-.239h2.46v.236c0 3.596-.002 7.192.003 10.787 0 .175-.048.249-.227.296-1.44.381-2.902.635-4.392.735-.048.003-.094.02-.142.031h-1.422zM58.372 17c-.3-.038-.602-.07-.902-.115-.702-.104-1.372-.303-1.983-.66-.975-.569-1.481-1.425-1.598-2.508a8.057 8.057 0 0 1-.036-.851c-.003-2.573-.002-5.146-.002-7.72V4.92h2.46v.232c0 2.325-.002 4.65.003 6.974.001.546.065 1.087.24 1.61.298.89.95 1.376 1.885 1.483 1.146.132 2.274-.005 3.388-.285.198-.05.271-.139.27-.35-.008-3.142-.005-6.284-.005-9.426v-.24h2.448c.004.067.011.131.011.195 0 3.62 0 7.24.004 10.86 0 .149-.045.211-.191.25a23.03 23.03 0 0 1-4.409.745c-.054.004-.107.022-.16.033h-1.423z"/>
        <g transform="translate(76.782)">
            <mask id="f" fill="#fff">
                <use xlink:href="#e"/>
            </mask>
            <path fill="#CD2028" d="M2.821 1.523c0-.681-.538-1.228-1.208-1.227A1.218 1.218 0 0 0 .41 1.51a1.207 1.207 0 0 0 1.215 1.217 1.18 1.18 0 0 0 1.197-1.204zm.397.22c-.043.125-.078.253-.132.374-.296.67-1.04 1.033-1.801.886-.73-.14-1.26-.762-1.27-1.485C.008.823.529.201 1.247.043c.047-.01.093-.028.138-.043h.487c.016.01.03.023.048.027.69.144 1.119.547 1.274 1.219.003.01.016.017.025.025v.473z" mask="url(#f)"/>
        </g>
        <path fill="#CD2028" d="M51.472 16.707h-2.284c-.43 0-.861-.006-1.291.003-.142.003-.222-.035-.29-.162-.998-1.88-2.002-3.758-3.005-5.636L40.49 3.219a.285.285 0 0 0-.116-.123v13.599h-2.152V1.042c.057-.003.117-.01.177-.01 1.122 0 2.245.002 3.367-.003.13 0 .196.037.258.152 2.385 4.464 4.774 8.925 7.163 13.387a.305.305 0 0 0 .118.13V1.047h2.167v15.66zM78.167 1.445c.197.014.386.044.502-.13.033-.049.02-.167-.02-.213-.13-.144-.303-.128-.482-.077v.42zm-.368.835c0-.475-.002-.934.005-1.393 0-.038.064-.107.102-.11.241-.013.485-.03.725-.012.27.02.406.141.445.34.036.186-.033.292-.296.444.287.162.241.468.35.71-.314.09-.371.06-.448-.227-.085-.32-.147-.359-.53-.313V2.28h-.353z"/>
    </g>
</svg>
