<svg xmlns="http://www.w3.org/2000/svg" width="48" height="48" viewBox="0 0 48 48">
    <g fill="none" fill-rule="evenodd" stroke-width="2">
        <path stroke="#505050" stroke-linejoin="round" d="M6.742 47v-2.5a1.5 1.5 0 0 1 1.5-1.5h7.5a2 2 0 0 0 2-2v-.5a1.5 1.5 0 0 1 1.5-1.5h.5a2 2 0 0 0 2-2v-1a2 2 0 0 0-2-2h-6a1.5 1.5 0 0 0-1.5 1.5 1.5 1.5 0 0 1-1.5 1.5h-7M24.742 47v-3a2 2 0 0 1 2-2h7a2 2 0 0 0 0-4h-1a2 2 0 0 1 0-4h9"/>
        <path stroke="#505050" d="M1.742 47c0-12.15 9.85-22 22-22s22 9.85 22 22h-44z"/>
        <path stroke="#2EB87C" stroke-linejoin="round" d="M26.742 7l.025-1-4.025-5h-3l2 5v1M38.742 11a2 2 0 0 0-2-2H14.304c-.11 0-3.562-3-3.562-3h-2l.956 4.016c-.56.296-.956.592-.956 1.119 0 1.583 3.547 1.865 4.562 1.865h8.438v2l-3 6h3l5-5 1.932-3h8.068a2 2 0 0 0 2-2zM.742 27.215a30.983 30.983 0 0 1 16-9.422M29.742 17.58a30.957 30.957 0 0 1 16.806 9.422"/>
    </g>
</svg>
