<svg xmlns="http://www.w3.org/2000/svg" width="46" height="46" viewBox="0 0 46 46">
    <g fill="none" fill-rule="evenodd" stroke-width="2">
        <path stroke="#505050" d="M20.005 33.587a11.023 11.023 0 0 1-7.591-7.586m0-6A11.021 11.021 0 0 1 20 12.413m6 0a11.023 11.023 0 0 1 7.588 7.59M33.586 26A11.025 11.025 0 0 1 26 33.586"/>
        <path stroke="#2EB87C" d="M20.186 42.5C11.56 41.266 4.733 34.441 3.5 25.813m0-5.627C4.732 11.559 11.558 4.734 20.186 3.5m5.628 0c8.627 1.234 15.452 8.058 16.685 16.686m0 5.628c-1.233 8.628-8.058 15.452-16.685 16.686"/>
        <path stroke="#2EB87C" d="M26 34a2 2 0 0 0-2-2h-2a2 2 0 0 0-2 2v9a2 2 0 0 0 2 2h2a2 2 0 0 0 2-2v-9zM45 22a2 2 0 0 0-2-2h-9a2 2 0 0 0-2 2v2a2 2 0 0 0 2 2h9a2 2 0 0 0 2-2v-2zM14 22a2 2 0 0 0-2-2H3a2 2 0 0 0-2 2v2a2 2 0 0 0 2 2h9a2 2 0 0 0 2-2v-2zM26 3a2 2 0 0 0-2-2h-2a2 2 0 0 0-2 2v9a2 2 0 0 0 2 2h2a2 2 0 0 0 2-2V3z"/>
        <path stroke="#505050" d="M2 12V9a7 7 0 0 1 7-7h3M44 12V9a7 7 0 0 0-7-7h-3M2 34v3a7 7 0 0 0 7 7h3M44 34v3a7 7 0 0 1-7 7h-3"/>
    </g>
</svg>
