<svg xmlns="http://www.w3.org/2000/svg" width="80" height="80" viewBox="0 0 80 80">
    <g fill="none" fill-rule="evenodd">
        <path fill="#62E6AC" fill-rule="nonzero" d="M3.678 0h59.655L78.92 15.56A3.678 3.678 0 0 1 80 18.162v58.159A3.678 3.678 0 0 1 76.322 80H3.678A3.678 3.678 0 0 1 0 76.322V3.678A3.678 3.678 0 0 1 3.678 0z" opacity=".109"/>
        <g stroke="#505050" stroke-width="2">
            <path stroke-linejoin="round" d="M31.916 55.802l-2.711-1.581-3.824 2.12-2.709-2.71 2.122-3.822-1.566-2.712-4.372-.074-.856-3.7 3.764-2.25v-3.131L18 35.69l.965-3.701 4.31-.074 1.549-2.712-2.136-3.823 2.702-2.708 3.819 2.12 2.709-1.564.074-4.372L35.691 18l2.25 3.764h3.131L43.322 18l3.7.965.075 4.31 2.712 1.549 3.823-2.135 2.708 2.7-2.121 3.82 1.566 2.709 4.372.073 1.113 3.7-3.506 2.25v3.132l3.506 2.25-1.093 3.7-4.375.074-1.581 2.712 2.119 3.823-2.709 2.709-3.823-2.122-2.711 1.565"/>
            <path d="M31.764 38.764a3 3 0 1 1-6 0 3 3 0 0 1 6 0zM51.764 33.764a3 3 0 1 1-6 0 3 3 0 0 1 6 0zM41.764 28.764a3 3 0 1 1-6 0 3 3 0 0 1 6 0zM38.764 31.764v32"/>
            <path d="M46.764 35.764l-4 4v6M30.764 40.764l4 4v19M52.764 43.764a3 3 0 1 1-6 0 3 3 0 0 1 6 0z"/>
            <path d="M47.764 45.764l-5 5v13"/>
        </g>
    </g>
</svg>
