<svg xmlns="http://www.w3.org/2000/svg" width="47" height="40" viewBox="0 0 47 40">
    <g fill="none" fill-rule="evenodd" stroke-linecap="round" stroke-linejoin="round" stroke-width="2">
        <path stroke="#505050" d="M42.576 17.424c.104-.438.19-.884.257-1.337.543-3.656-.097-8.685-3.995-11.783C34.474.836 25.997.816 22 7.498 18.004.816 9.526.836 5.163 4.304 1.263 7.402.625 12.43 1.167 16.087 2.237 23.3 7.88 28.394 22 39c8.085-6.073 13.39-10.34 16.65-14.23"/>
        <path stroke="#2EB87C" d="M7 21h7l4-10 4 19 5-12 3 7 2-4h14"/>
    </g>
</svg>
