<svg xmlns="http://www.w3.org/2000/svg" width="33" height="47" viewBox="0 0 33 47">
    <g fill="none" fill-rule="evenodd" stroke-width="2">
        <path stroke="#505050" d="M29.094 46H3.906C2.301 46 1 44.686 1 43.065V3.935C1 2.314 2.301 1 3.906 1h25.188C30.699 1 32 2.314 32 3.935v39.13C32 44.686 30.699 46 29.094 46zM15.531 3.935h4.844M11.656 3.935h1.938M1 40.13h31M1 6.87h31M14.563 43.065h3.874"/>
        <path stroke="#2EB87C" d="M10.688 16.652h16.135c.65 0 1.115.632.928 1.26l-2.325 7.825a.971.971 0 0 1-.928.698H11.656"/>
        <path stroke="#2EB87C" d="M24.25 30.348H13.594c-.449 0-.84-.545-.969-.978L7.781 14.696H3.906M11.656 33.283h1.938M22.313 33.283h1.937"/>
    </g>
</svg>
