<svg xmlns="http://www.w3.org/2000/svg" width="80" height="80" viewBox="0 0 80 80">
    <g fill="none" fill-rule="evenodd">
        <path fill="#62E6AC" fill-rule="nonzero" d="M3.678 0h59.655L78.92 15.56A3.678 3.678 0 0 1 80 18.162v58.159A3.678 3.678 0 0 1 76.322 80H3.678A3.678 3.678 0 0 1 0 76.322V3.678A3.678 3.678 0 0 1 3.678 0z" opacity=".109"/>
        <g stroke="#505050" stroke-width="2">
            <path d="M24 30h4l4 6h3M24 41h15M24 30a3 3 0 1 1-6 0 3 3 0 0 1 6 0zM24 41a3 3 0 1 1-6 0 3 3 0 0 1 6 0zM32 25l4 6h5"/>
            <path d="M33 23a3 3 0 1 1-6 0 3 3 0 0 1 6 0zM24 52a3 3 0 1 0-6 0 3 3 0 0 0 6 0zM32 57l4-6h5"/>
            <path d="M33 59a3 3 0 1 0-6-.001 3 3 0 0 0 6 0zM41 41h-2M24 52h4l4-6h19v2.886l11.465-7.767L51 32.886V36H41M47 41h2M43 41h2M43 31h2M43 51h2M39 36h-2"/>
        </g>
    </g>
</svg>
