<svg xmlns="http://www.w3.org/2000/svg" width="34" height="48" viewBox="0 0 34 48">
    <g fill="none" fill-rule="evenodd" stroke-linejoin="round" stroke-width="2">
        <g stroke="#505050">
            <path d="M26 39v9M8 39v9M28.87 33.844c-.15 1.201-.435 2.504-.87 3.156-.687 1.031-4 4-4 4a7.204 7.204 0 0 1-5 2h-4c-1.75 0-3.572-.63-5-2 0 0-3.312-2.969-4-4-.422-.633-.702-1.88-.856-3.05M14 10V1h6v9M34 21H0M11 7V2C6.25 3.583 3 6.958 3 12v4l-2 1v2M23 7V2c4.75 1.583 8 4.958 8 10v4l2 1v2"/>
        </g>
        <path stroke="#2EB87C" d="M29 24h2v5l-2 3-9.908.604L17 29l-2.189 3.604L5 32l-2-3v-5h2"/>
    </g>
</svg>
