<svg xmlns="http://www.w3.org/2000/svg" width="100" height="100" viewBox="0 0 100 100">
    <defs>
        <linearGradient id="a" x1="84.179%" x2="33.179%" y1="0%" y2="100%">
            <stop offset="0%" stop-color="#44D1FF"/>
            <stop offset="100%" stop-color="#50E3C2"/>
        </linearGradient>
        <linearGradient id="b" x1="100%" x2="6.34%" y1="-18.254%" y2="120.106%">
            <stop offset="0%" stop-color="#44D1FF"/>
            <stop offset="100%" stop-color="#50E3C2"/>
        </linearGradient>
    </defs>
    <g fill="none" fill-rule="evenodd">
        <rect width="98" height="98" x="1" y="1" stroke="url(#a)" stroke-width="2" rx="49"/>
        <path fill="url(#b)" fill-rule="nonzero" d="M55.332 23.17l-2.492 3.908a1 1 0 0 1-.843.462h-4.03a1 1 0 0 1-.843-.462l-2.492-3.906-3.335.986-.083 4.892a1 1 0 0 1-.5.849l-3.488 2.014a1 1 0 0 1-.986.009l-4.26-2.364-2.42 2.42 2.363 4.261a1 1 0 0 1-.01.988l-2.032 3.49a1 1 0 0 1-.847.496l-4.886.084-.977 3.334 3.907 2.493a1 1 0 0 1 .462.843v4.03a1 1 0 0 1-.462.843l-3.906 2.491.986 3.336 4.893.082a1 1 0 0 1 .849.5l2.015 3.49a1 1 0 0 1 .008.985l-2.365 4.26 2.42 2.42 4.261-2.363a1 1 0 0 1 .988.01l3.49 2.032a1 1 0 0 1 .496.847l.084 4.887 3.334.976 2.493-3.907a1 1 0 0 1 .843-.462h4.03a1 1 0 0 1 .843.462l2.491 3.905 3.336-.985.084-4.893a1 1 0 0 1 .5-.85l3.489-2.013a1 1 0 0 1 .985-.008l4.26 2.364 2.42-2.42-2.364-4.261a1 1 0 0 1 .01-.989l2.032-3.489a1 1 0 0 1 .847-.496l4.887-.084.976-3.335-3.907-2.492a1 1 0 0 1-.462-.843v-4.03a1 1 0 0 1 .462-.843l3.905-2.492-.985-3.335-4.892-.083a1 1 0 0 1-.849-.5l-2.015-3.49a1 1 0 0 1-.008-.985l2.364-4.26-2.42-2.42-4.261 2.364a1 1 0 0 1-.989-.01l-3.489-2.032a1 1 0 0 1-.496-.847l-.084-4.887-3.335-.976zm-3.884 2.37l2.602-4.078a1 1 0 0 1 1.124-.422l4.761 1.394a1 1 0 0 1 .72.942l.086 5.06 2.51 1.462 4.424-2.453a1 1 0 0 1 1.192.167l3.486 3.486a1 1 0 0 1 .167 1.193l-2.455 4.423 1.45 2.51 5.059.086a1 1 0 0 1 .942.716l1.407 4.761a1 1 0 0 1-.422 1.127l-4.077 2.601v2.933L78.5 54.05a1 1 0 0 1 .422 1.124l-1.393 4.761a1 1 0 0 1-.943.72l-5.06.086-1.462 2.51 2.454 4.424a1 1 0 0 1-.167 1.192l-3.486 3.486a1 1 0 0 1-1.193.167l-4.424-2.455-2.508 1.448-.087 5.061a1 1 0 0 1-.716.942l-4.762 1.407a1 1 0 0 1-1.126-.422l-2.602-4.077h-2.933L45.914 78.5a1 1 0 0 1-1.124.422l-4.761-1.393a1 1 0 0 1-.72-.943l-.086-5.06-2.51-1.462-4.424 2.454a1 1 0 0 1-1.192-.167l-3.486-3.486a1 1 0 0 1-.168-1.193l2.457-4.425-1.449-2.508-5.061-.086a1 1 0 0 1-.942-.716l-1.407-4.762a1 1 0 0 1 .421-1.126l4.078-2.602v-2.933l-4.078-2.601a1 1 0 0 1-.422-1.124l1.395-4.762a1 1 0 0 1 .943-.718l5.058-.087 1.462-2.51-2.453-4.424a1 1 0 0 1 .167-1.192l3.486-3.486a1 1 0 0 1 1.192-.168l4.426 2.455 2.508-1.448.086-5.06a1 1 0 0 1 .716-.942l4.761-1.407a1 1 0 0 1 1.127.421l2.601 4.078h2.933zm-1.88 9.206a1 1 0 0 1 .828 0l14.325 6.512a1 1 0 0 1 .587.91v15.628a1 1 0 0 1-.587.91l-14.325 6.512a1 1 0 0 1-.828 0l-14.325-6.512a1 1 0 0 1-.587-.91V42.168a1 1 0 0 1 .587-.91l14.325-6.512zm.414 2.009l-13.326 6.057v14.34l13.326 6.057 13.326-6.057v-14.34l-13.326-6.057zm-10.82 8.28l.802-1.832 10.419 4.56-.802 1.833-10.419-4.56zM60 43.203l.802 1.832-10.419 4.561-.802-1.832L60 43.204zM48.982 48.68h2V60.4h-2V48.68z"/>
    </g>
</svg>
