<svg xmlns="http://www.w3.org/2000/svg" width="47" height="46" viewBox="0 0 47 46">
    <g fill="none" fill-rule="evenodd" stroke-width="2">
        <path stroke="#2EB87C" stroke-linejoin="round" d="M13.125 18h19V1h-19z"/>
        <path stroke="#2EB87C" stroke-linejoin="round" d="M26.125 1v4h-7V1M29.125 14h-2M26.125 14h-2"/>
        <path stroke="#2EB87C" stroke-linecap="round" stroke-linejoin="round" d="M6.638 18a29.159 29.159 0 0 1 3.487-2M1 22.915A29.672 29.672 0 0 1 3.987 20M42.128 20.763c1.091 1 2.108 2.082 3.042 3.237M35.126 16a28.978 28.978 0 0 1 3.998 2.351"/>
        <path stroke="#505050" stroke-linejoin="round" d="M6 45v-2.5A1.5 1.5 0 0 1 7.5 41H15a2 2 0 0 0 2-2v-.5a1.5 1.5 0 0 1 1.5-1.5h.5a2 2 0 0 0 2-2v-1a2 2 0 0 0-2-2h-6a1.5 1.5 0 0 0-1.5 1.5A1.5 1.5 0 0 1 10 35H3M24 45v-3a2 2 0 0 1 2-2h7a2 2 0 0 0 0-4h-1a2 2 0 0 1 0-4h9"/>
        <path stroke="#505050" d="M1 45c0-12.15 9.85-22 22-22s22 9.85 22 22H1z"/>
    </g>
</svg>
