<svg xmlns="http://www.w3.org/2000/svg" width="100" height="100" viewBox="0 0 100 100">
    <defs>
        <linearGradient id="a" x1="84.179%" x2="33.179%" y1="0%" y2="100%">
            <stop offset="0%" stop-color="#44D1FF"/>
            <stop offset="100%" stop-color="#50E3C2"/>
        </linearGradient>
        <linearGradient id="b" x1="100%" x2="6.34%" y1="-18.254%" y2="120.106%">
            <stop offset="0%" stop-color="#44D1FF"/>
            <stop offset="100%" stop-color="#50E3C2"/>
        </linearGradient>
    </defs>
    <g fill="none" fill-rule="evenodd">
        <rect width="98" height="98" x="1" y="1" stroke="url(#a)" stroke-width="2" rx="49"/>
        <path fill="url(#b)" fill-rule="nonzero" d="M77.126 61.358l.208.146.031-.05-.088-.17-.15.074zm-.126-.09l-8.257-5.817L51.5 63.955v.151l8.257 5.818L77 61.42v-.151zm-25.834 2.603l-.031.05.088.17.15-.074-.207-.146zm8.191-13.138v3.559h-2V32.333c0-2.695 2.21-4.875 4.929-4.875 2.719 0 4.928 2.18 4.928 4.875h-2c0-1.585-1.308-2.875-2.928-2.875-1.62 0-2.929 1.29-2.929 2.875v3.271L79 45.938v2.414l-8.43 5.94 8.43 5.94v2.431l-7.857 3.875v7.77L50.5 83.808l-20.643-9.502v-7.769L22 62.663v-2.432l8.43-5.94L22 48.353v-2.414l19.643-10.334v-8.437c0-1.585-1.308-2.875-2.929-2.875-1.62 0-2.928 1.29-2.928 2.875h-2c0-2.696 2.21-4.875 4.928-4.875 2.72 0 4.929 2.179 4.929 4.875v27.125h-2v-3.559l-7.216 3.559L50.5 62.218l16.073-7.926-7.216-3.559zm0-2.23l9.386 4.63L77 47.314v-.17l-17.643-9.28v10.638zm-17.714 0V37.864L24 47.146v.169l8.257 5.817 9.386-4.629zm9.857 18.05v14.594l17.643-8.12v-5.502l-9.567 4.718-8.076-5.69zm-2 14.594V66.553l-8.076 5.69-9.567-4.718v5.501L49.5 81.147zm0-17.192l-17.243-8.504L24 61.27v.15l17.243 8.505 8.257-5.818v-.15zm2.619-40.663h2v33.583h-2V23.292zM46.881 37.5h2v19.375h-2V37.5zm2-2.583h-2v-2.584h2v2.584zm0-5.167h-2v-2.583h2v2.583z"/>
    </g>
</svg>
