<svg xmlns="http://www.w3.org/2000/svg" width="80" height="80" viewBox="0 0 80 80">
    <g fill="none" fill-rule="evenodd">
        <path fill="#62E6AC" fill-rule="nonzero" d="M3.678 0h59.655L78.92 15.56A3.678 3.678 0 0 1 80 18.162v58.159A3.678 3.678 0 0 1 76.322 80H3.678A3.678 3.678 0 0 1 0 76.322V3.678A3.678 3.678 0 0 1 3.678 0z" opacity=".109"/>
        <g stroke="#505050" stroke-linejoin="round" stroke-width="2">
            <path d="M25 22v-2a1 1 0 0 1 1-1h32a1 1 0 0 1 1 1v20"/>
            <path d="M20 60V25a1 1 0 0 1 1-1h32a1 1 0 0 1 1 1v23M19 32h32M23 28h2M27 28h2M31 28h2M54 50v2M59 46v2M59 42v2"/>
            <path d="M49 46.543l-1.631-3.939-3.046 1.261a9.365 9.365 0 0 0-2.189-2.186l1.262-3.047L39.458 37l-1.262 3.047a9.393 9.393 0 0 0-3.094-.002L33.841 37l-3.939 1.631 1.261 3.045a9.388 9.388 0 0 0-2.186 2.19l-3.047-1.263-1.632 3.939 3.048 1.262a9.393 9.393 0 0 0-.003 3.094l-3.045 1.261 1.632 3.939 3.045-1.261a9.384 9.384 0 0 0 2.189 2.186l-1.262 3.047 3.939 1.632 1.262-3.048c1.01.17 2.053.177 3.093.003l1.262 3.045 3.938-1.632-1.261-3.045a9.327 9.327 0 0 0 2.186-2.189l3.048 1.263L49 52.16l-3.047-1.263a9.36 9.36 0 0 0 .002-3.093L49 46.543z"/>
            <path d="M40.475 47.766a4.142 4.142 0 1 1-7.653 3.17 4.142 4.142 0 0 1 7.653-3.17z"/>
        </g>
    </g>
</svg>
