<svg xmlns="http://www.w3.org/2000/svg" width="80" height="80" viewBox="0 0 80 80">
    <g fill="none" fill-rule="evenodd">
        <path fill="#62E6AC" fill-rule="nonzero" d="M3.678 0h59.655L78.92 15.56A3.678 3.678 0 0 1 80 18.162v58.159A3.678 3.678 0 0 1 76.322 80H3.678A3.678 3.678 0 0 1 0 76.322V3.678A3.678 3.678 0 0 1 3.678 0z" opacity=".109"/>
        <g stroke="#505050" stroke-width="2">
            <path d="M32.207 51.014l-3.222-3.222V46.38l1.417-1.22c.067-.425.215-.731.283-1.157-.133-.284-.168-.54-.242-.805-.364-.272-.59-.458-.954-.73l-1.594.028c-.399-.394-.612-.611-1.012-1.005l.022-3.105 1.048-.993 1.503.07 1.007-.725c.07-.246.151-.484.275-.748-.067-.427-.312-.734-.379-1.161l-1.374-1.178v-1.413l3.222-3.223h1.414l1.18 1.377c.424.069.73.217 1.154.285.273-.126.52-.155.775-.224.276-.369.463-.594.74-.96l-.034-1.574c.396-.4.611-.613 1.007-1.014l3.101.024c.391.41.602.634.993 1.043l-.063 1.542.714.999c.257.075.504.162.78.294.428-.066.735-.311 1.164-.378l1.217-1.413h1.414l3.222 3.222v1.414l-1.403 1.206c-.08.413-.238.72-.318 1.132.128.275.155.519.222.772.371.283.596.473.97.756l1.55-.037c.402.395.615.61 1.017 1.008l-.027 3.086-1.05.99-1.51-.072c-.376.269-.63.452-1.007.72a4.714 4.714 0 0 1-.278.745c.067.429.312.735.38 1.163l1.454 1.259v1.414l-3.222 3.222H46.35l-1.263-1.46c-.423-.068-.729-.216-1.152-.284-.275.126-.52.155-.776.224-.276.368-.464.593-.739.96l.033 1.574c-.395.4-.61.613-1.007 1.014l-3.088-.024-.992-1.056.08-1.469-.742-1.02a4.347 4.347 0 0 1-.747-.276c-.41.077-.712.33-1.122.407l-1.213 1.41h-1.414z"/>
            <path d="M37.157 42.843a4 4 0 1 0 5.657-5.658 4 4 0 0 0-5.657 5.658zM27.985 52.014h-6v6"/>
            <path d="M20.857 48.532c-3.517-7.714-2.02-17.08 4.328-23.428 8.17-8.169 21.496-8.124 29.665.045l2.703 2.703M59.114 31.497c3.517 7.714 2.019 17.08-4.33 23.428-8.168 8.17-21.495 8.124-29.664-.045l-2.703-2.702"/>
            <path d="M51.985 28.014h6v-6"/>
        </g>
    </g>
</svg>
