<svg xmlns="http://www.w3.org/2000/svg" width="80" height="80" viewBox="0 0 80 80">
    <g fill="none" fill-rule="evenodd">
        <path fill="#62E6AC" fill-rule="nonzero" d="M3.678 0h59.655L78.92 15.56A3.678 3.678 0 0 1 80 18.162v58.159A3.678 3.678 0 0 1 76.322 80H3.678A3.678 3.678 0 0 1 0 76.322V3.678A3.678 3.678 0 0 1 3.678 0z" opacity=".109"/>
        <g stroke="#505050" stroke-width="2">
            <path stroke-linejoin="round" d="M41.032 22.486L43.258 19l3.656 1.069.074 4.318 2.679 1.56 3.779-2.096 2.676 2.677-2.096 3.777 1.547 2.68 4.32.073 1.079 3.656-3.485 2.224v3.094l3.485 2.224-1.07 3.656-4.317.074-1.56 2.679 2.096 3.778-2.677 2.677-3.777-2.096-2.68 1.547-.073 4.32-3.656 1.079-2.224-3.485h-3.095l-2.223 3.485-3.657-1.07-.073-4.317-2.68-1.56-3.777 2.096-2.677-2.677 2.097-3.777-1.547-2.68-4.321-.073L18 44.257l3.486-2.224v-3.094L18 36.715l1.07-3.656 4.318-.074 1.56-2.68-2.096-3.777 2.677-2.677 3.777 2.096 2.68-1.547.073-4.32L35.716 19l2.223 3.486z"/>
            <path d="M48.486 32.486c0 1.657-4.03 3-9 3-4.971 0-9-1.343-9-3s4.029-3 9-3c4.97 0 9 1.343 9 3z"/>
            <path d="M30.486 32.486v5c0 1.656 4.029 3 9 3 4.97 0 9-1.344 9-3v-5"/>
            <path d="M30.486 37.486v5c0 1.656 4.029 3 9 3 4.97 0 9-1.344 9-3v-5"/>
            <path d="M30.486 42.486v5c0 1.656 4.029 3 9 3 4.97 0 9-1.344 9-3v-5"/>
        </g>
    </g>
</svg>
