<svg xmlns="http://www.w3.org/2000/svg" width="80" height="80" viewBox="0 0 80 80">
    <g fill="none" fill-rule="evenodd">
        <path fill="#62E6AC" fill-rule="nonzero" d="M3.678 0h59.655L78.92 15.56A3.678 3.678 0 0 1 80 18.162v58.159A3.678 3.678 0 0 1 76.322 80H3.678A3.678 3.678 0 0 1 0 76.322V3.678A3.678 3.678 0 0 1 3.678 0z" opacity=".109"/>
        <g stroke="#505050" stroke-width="2">
            <path d="M57 26h-5.917L47 32h-6M57 37h-5M57 26a3 3 0 1 0 6 0 3 3 0 0 0-6 0zM57 48h-3.917l-3.958-6H40M57 48a3 3 0 1 1 6 0 3 3 0 0 1-6 0zM57 37a3 3 0 1 0 6 0 3 3 0 0 0-6 0zM51 54l-5-7H34M50 57a3 3 0 1 1 6 0 3 3 0 0 1-6 0zM40 26v-3a3 3 0 0 0-3-3H20a3 3 0 0 0-3 3v3M17 54v4a3 3 0 0 0 3 3h17a3 3 0 0 0 3-3v-4"/>
            <path d="M40 50v4H17V26h23v3M26 57h5M42 37H23M50 37h-2M46 37h-2M39 32h-8M38 42h-9"/>
        </g>
    </g>
</svg>
